<?xml version="1.0" encoding="UTF-8"?><svg xmlns="http://www.w3.org/2000/svg" viewBox="0 0 620 230.24"><defs><style>.c{stroke-dasharray:0 0 0 3;}.c,.d{stroke:#e7d8e7;stroke-linecap:round;stroke-width:.5px;}.c,.d,.e{fill:none;stroke-miterlimit:10;}.f{fill:#1f121f;}.e{stroke:#ef548e;stroke-width:2px;}.g{fill:#98819b;font-family:"National 2 Web", -apple-system, BlinkMacSystemFont, Helvetica, Arial, sans-serif;font-size:16px;}</style></defs><g id="a"><rect class="f" x="-280.32" y="-321.37" width="2364.06" height="2937.98"/></g><g id="b"><g><line class="d" x1="3.09" y1="199.58" x2="3.09" y2="199.58"/><line class="c" x1="6.09" y1="199.58" x2="614.24" y2="199.58"/><line class="d" x1="615.74" y1="199.58" x2="615.74" y2="199.58"/></g><g><line class="d" x1="3.09" y1="116.43" x2="3.09" y2="116.43"/><line class="c" x1="6.09" y1="116.43" x2="614.24" y2="116.43"/><line class="d" x1="615.74" y1="116.43" x2="615.74" y2="116.43"/></g><g><line class="d" x1="3.09" y1="34.81" x2="3.09" y2="34.81"/><line class="c" x1="6.09" y1="34.81" x2="614.24" y2="34.81"/><line class="d" x1="615.74" y1="34.81" x2="615.74" y2="34.81"/></g><polyline class="e" points="60.81 172.62 190.9 128.36 320.98 111.97 451.07 79.19 607.17 100.91"/><text class="g" transform="translate(38.82 220.11)"><tspan x="0" y="0">1980</tspan></text><text class="g" transform="translate(3.09 190.05)"><tspan x="0" y="0">40%</tspan></text><text class="g" transform="translate(3.09 109.91)"><tspan x="0" y="0">60%</tspan></text><text class="g" transform="translate(3.09 26.72)"><tspan x="0" y="0">80%</tspan></text><text class="g" transform="translate(169.86 220.11)"><tspan x="0" y="0">1990</tspan></text><text class="g" transform="translate(299.36 220.11)"><tspan x="0" y="0">2000</tspan></text><text class="g" transform="translate(428.87 220.11)"><tspan x="0" y="0">2010</tspan></text><text class="g" transform="translate(560.28 220.11)"><tspan x="0" y="0">2020</tspan></text></g></svg>