<?xml version="1.0" encoding="UTF-8"?><svg xmlns="http://www.w3.org/2000/svg" viewBox="0 0 400 160.23"><defs><style>.c{fill:#1f121f;}.d,.e,.f{fill:none;stroke-miterlimit:10;}.d,.f{stroke:#e7d8e7;stroke-linecap:round;stroke-width:.5px;}.g{fill:#98819b;font-family:"National 2 Web", -apple-system, BlinkMacSystemFont, Helvetica, Arial, sans-serif;font-size:14px;}.e{stroke:#ef548e;stroke-width:2px;}.f{stroke-dasharray:0 0 0 3;}</style></defs><g id="a"><rect class="c" x="-1116.27" y="-313.57" width="2364.06" height="2937.98"/></g><g id="b"><g><line class="d" x1="1.58" y1="132.49" x2="1.58" y2="132.49"/><line class="f" x1="4.58" y1="132.49" x2="396.32" y2="132.49"/><line class="d" x1="397.82" y1="132.49" x2="397.82" y2="132.49"/></g><g><line class="d" x1="1.58" y1="78.49" x2="1.58" y2="78.49"/><line class="f" x1="4.58" y1="78.49" x2="396.32" y2="78.49"/><line class="d" x1="397.82" y1="78.49" x2="397.82" y2="78.49"/></g><g><line class="d" x1="1.58" y1="25.49" x2="1.58" y2="25.49"/><line class="f" x1="4.58" y1="25.49" x2="396.32" y2="25.49"/><line class="d" x1="397.82" y1="25.49" x2="397.82" y2="25.49"/></g><polyline class="e" points="38.92 114.97 123.05 86.24 207.18 75.59 291.32 54.31 392.28 68.41"/><text class="g" transform="translate(24.69 150)"><tspan x="0" y="0">1980</tspan></text><text class="g" transform="translate(1.58 126.29)"><tspan x="0" y="0">40%</tspan></text><text class="g" transform="translate(1.58 74.26)"><tspan x="0" y="0">60%</tspan></text><text class="g" transform="translate(1.58 20.23)"><tspan x="0" y="0">80%</tspan></text><text class="g" transform="translate(109.44 150)"><tspan x="0" y="0">1990</tspan></text><text class="g" transform="translate(193.2 150)"><tspan x="0" y="0">2000</tspan></text><text class="g" transform="translate(276.96 150)"><tspan x="0" y="0">2010</tspan></text><text class="g" transform="translate(361.95 150)"><tspan x="0" y="0">2020</tspan></text></g></svg>