<?xml version="1.0" encoding="UTF-8"?><svg id="uuid-650b69e7-aa4d-462e-9e82-a461176b5b5d" xmlns="http://www.w3.org/2000/svg" viewBox="0 0 400 293.88254"><defs><style>.uuid-b1c51257-64c4-4071-aee9-e109a3a464af{letter-spacing:.05001em;}.uuid-3aca544d-8a82-4a8f-80f6-9897fd19abc1{letter-spacing:-.01995em;}.uuid-337f7589-e4cd-4639-a0e7-5e17c689a04c{letter-spacing:-.03997em;}.uuid-4e64a622-31fa-4d56-8107-e2d3c59fb8ba{letter-spacing:.02002em;}.uuid-27aad1c3-f73a-45d3-9bcf-692af4fe66fa{stroke:#974b9d;}.uuid-27aad1c3-f73a-45d3-9bcf-692af4fe66fa,.uuid-0cafa1c2-9453-4fc9-9377-4873b959dc3d{stroke-width:2px;}.uuid-27aad1c3-f73a-45d3-9bcf-692af4fe66fa,.uuid-0cafa1c2-9453-4fc9-9377-4873b959dc3d,.uuid-b4020b1a-1ab0-4f20-95a8-185a9b78b750,.uuid-3ad3edde-d138-4c5f-b905-bdb24f79973e{fill:none;stroke-miterlimit:10;}.uuid-0cafa1c2-9453-4fc9-9377-4873b959dc3d{stroke:#ef548e;}.uuid-0785f1b8-b01c-4c62-a3ba-900283baa0d0{letter-spacing:-.00007em;}.uuid-e2812b03-fbd0-4376-86ff-1f3fea99f0a9{letter-spacing:-.06996em;}.uuid-f5d877d3-2b32-494c-8d40-69ed55b32e54{fill:#98819b;}.uuid-f5d877d3-2b32-494c-8d40-69ed55b32e54,.uuid-f5097d6a-1c63-4d39-a13a-81025ee15174,.uuid-975e0694-8bba-4860-bbd2-0d39d5a03b9b,.uuid-1150805d-c6c5-44e5-b9eb-34702b7d89d8{font-family:TiemposText-Regular, 'Copyright Klim Type Foundry';font-size:14px;}.uuid-f5097d6a-1c63-4d39-a13a-81025ee15174{fill:#af6eae;}.uuid-975e0694-8bba-4860-bbd2-0d39d5a03b9b{fill:#f171ab;}.uuid-1150805d-c6c5-44e5-b9eb-34702b7d89d8{fill:#f4f4f5;}.uuid-b4020b1a-1ab0-4f20-95a8-185a9b78b750{opacity:.62;stroke:#9d8da0;}.uuid-b4020b1a-1ab0-4f20-95a8-185a9b78b750,.uuid-3ad3edde-d138-4c5f-b905-bdb24f79973e{stroke-width:.5px;}.uuid-3ad3edde-d138-4c5f-b905-bdb24f79973e{stroke:#f4f4f5;}</style></defs><line class="uuid-b4020b1a-1ab0-4f20-95a8-185a9b78b750" x1="7.02726" y1="265.75747" x2="395.46904" y2="265.75747"/><line class="uuid-b4020b1a-1ab0-4f20-95a8-185a9b78b750" x1="7.02726" y1="183.75747" x2="395.46904" y2="183.75747"/><line class="uuid-b4020b1a-1ab0-4f20-95a8-185a9b78b750" x1="7.02726" y1="101.75747" x2="395.46904" y2="101.75747"/><line class="uuid-b4020b1a-1ab0-4f20-95a8-185a9b78b750" x1="7.02726" y1="19.75747" x2="395.46904" y2="19.75747"/><polyline class="uuid-0cafa1c2-9453-4fc9-9377-4873b959dc3d" points="51.37095 177.38459 56.66513 121.4771 61.95931 121.46313 67.2535 148.79562 72.54768 138.05492 77.84186 132.25791 83.13605 113.29629 93.72441 138.98458 104.31277 160.36726 109.60696 154.88531 114.90114 137.12661 120.19532 151.6914 125.48951 138.25149 130.78369 158.81197 136.07787 113.71977 141.37205 127.23046 146.66623 126.1834 151.96042 143.02735 162.54878 145.32291 167.84297 161.17402 178.43134 148.99209 189.01969 148.15217 199.60806 135.77334 210.19642 148.26693 220.78479 157.43417 231.37316 163.67252 241.96152 173.39497 252.54989 185.68299 263.13824 158.00246 273.72661 164.79165 284.31499 178.03886 294.90335 168.60757 310.78589 259.1863 316.08008 214.44338"/><polyline class="uuid-27aad1c3-f73a-45d3-9bcf-692af4fe66fa" points="51.37095 135.16454 56.66513 141.34202 61.95931 104.12414 67.2535 83.36179 72.54768 90.62853 77.84186 64.90806 83.13605 117.13114 93.72441 74.11904 104.31277 72.78962 109.60696 91.5743 114.90114 53.58514 120.19532 117.3023 125.48951 92.27929 130.78369 114.11782 136.07787 97.50872 141.37205 109.74372 146.66623 65.59239 151.96042 83.00103 162.54878 107.09229 167.84297 105.01534 178.43134 86.60545 189.01969 82.63505 199.60806 70.10093 210.19642 105.88284 220.78479 103.85355 231.37316 76.02061 241.96152 105.61869 252.54989 121.52413 263.13824 115.79829 273.72661 89.09939 284.31499 115.50492 294.90335 99.5102 310.78589 203.88857 316.08008 187.70356"/><text class="uuid-f5d877d3-2b32-494c-8d40-69ed55b32e54" transform="translate(7.02784 259.18642)"><tspan x="0" y="0">1</tspan><tspan class="uuid-e2812b03-fbd0-4376-86ff-1f3fea99f0a9" x="5.86621" y="0">.</tspan><tspan x="8.8623" y="0">9 (less happy)</tspan></text><text class="uuid-f5d877d3-2b32-494c-8d40-69ed55b32e54" transform="translate(7.02784 177.13076)"><tspan x="0" y="0">2.1</tspan></text><text class="uuid-f5d877d3-2b32-494c-8d40-69ed55b32e54" transform="translate(7.02784 95.07509)"><tspan x="0" y="0">2.3</tspan></text><text class="uuid-f5d877d3-2b32-494c-8d40-69ed55b32e54" transform="translate(7.02784 13.01943)"><tspan x="0" y="0">2.5 (happier)</tspan></text><text class="uuid-f5d877d3-2b32-494c-8d40-69ed55b32e54" transform="translate(81.85299 282.70791)"><tspan x="0" y="0">1980</tspan></text><text class="uuid-f5d877d3-2b32-494c-8d40-69ed55b32e54" transform="translate(134.79538 282.70791)"><tspan x="0" y="0">1990</tspan></text><text class="uuid-f5d877d3-2b32-494c-8d40-69ed55b32e54" transform="translate(187.73776 282.70791)"><tspan x="0" y="0">2000</tspan></text><text class="uuid-f5d877d3-2b32-494c-8d40-69ed55b32e54" transform="translate(240.67819 282.70791)"><tspan x="0" y="0">2010</tspan></text><text class="uuid-f5d877d3-2b32-494c-8d40-69ed55b32e54" transform="translate(293.6196 282.70791)"><tspan x="0" y="0">2020</tspan></text><text class="uuid-f5097d6a-1c63-4d39-a13a-81025ee15174" transform="translate(323.24844 126.26336)"><tspan class="uuid-4e64a622-31fa-4d56-8107-e2d3c59fb8ba" x="0" y="0">B</tspan><tspan class="uuid-0785f1b8-b01c-4c62-a3ba-900283baa0d0" x="9.54785" y="0">achelo</tspan><tspan class="uuid-b1c51257-64c4-4071-aee9-e109a3a464af" x="52.72266" y="0">r</tspan><tspan class="uuid-337f7589-e4cd-4639-a0e7-5e17c689a04c" x="59.19043" y="0">’</tspan><tspan x="62.38281" y="0">s</tspan><tspan x="0" y="16.7998">or higher</tspan></text><text class="uuid-975e0694-8bba-4860-bbd2-0d39d5a03b9b" transform="translate(328.70015 227.86346)"><tspan x="0" y="0">Eve</tspan><tspan class="uuid-4e64a622-31fa-4d56-8107-e2d3c59fb8ba" x="24.42969" y="0">r</tspan><tspan class="uuid-3aca544d-8a82-4a8f-80f6-9897fd19abc1" x="30.47754" y="0">y</tspan><tspan x="38.05176" y="0">one</tspan><tspan x="0" y="16.7998">else</tspan></text><text class="uuid-1150805d-c6c5-44e5-b9eb-34702b7d89d8" transform="translate(231.60791 241.12137)"><tspan x="0" y="0">Pandemic</tspan></text><polyline class="uuid-3ad3edde-d138-4c5f-b905-bdb24f79973e" points="267.60159 246.1944 267.60159 259.1863 306.57016 259.1863"/><text class="uuid-f5d877d3-2b32-494c-8d40-69ed55b32e54" transform="translate(35.01782 282.70827)"><tspan x="0" y="0">1972</tspan></text></svg>