<?xml version="1.0" encoding="UTF-8"?><svg xmlns="http://www.w3.org/2000/svg" viewBox="0 0 400 293.88"><defs><style>.c{letter-spacing:.05em;}.d{letter-spacing:0em;}.e{letter-spacing:-.03em;}.f{fill:#1f121f;}.g{letter-spacing:.01em;}.h{letter-spacing:.02em;}.i{opacity:.28;stroke:#9f90a0;stroke-width:.25px;}.i,.j,.k,.l{fill:none;stroke-miterlimit:10;}.m{fill:#98819b;}.m,.n,.o,.p{font-family:"National 2 Web", -apple-system, BlinkMacSystemFont, Helvetica, Arial, sans-serif;font-size:14px;}.n{fill:#f4f4f5;}.o{fill:#f171ab;}.p{fill:#af6eae;}.q{letter-spacing:0em;}.r{letter-spacing:0em;}.j{stroke:#974b9d;}.j,.k{stroke-width:2px;}.k{stroke:#ef548e;}.s{letter-spacing:-.01em;}.t{letter-spacing:0em;}.u{letter-spacing:0em;}.v{letter-spacing:0em;}.w{letter-spacing:-.07em;}.l{stroke:#f4f4f5;stroke-width:.5px;}</style></defs><g id="a"><rect class="f" x="-1171.65" y="-1366.77" width="2364.06" height="2937.98"/></g><g id="b"><line class="i" x1="7.03" y1="265.76" x2="395.47" y2="265.76"/><line class="i" x1="7.03" y1="183.76" x2="395.47" y2="183.76"/><line class="i" x1="7.03" y1="101.76" x2="395.47" y2="101.76"/><line class="i" x1="7.03" y1="19.76" x2="395.47" y2="19.76"/><polyline class="k" points="51.37 177.38 56.67 121.48 61.96 121.46 67.25 148.8 72.55 138.05 77.84 132.26 83.14 113.3 93.72 138.98 104.31 160.37 109.61 154.89 114.9 137.13 120.2 151.69 125.49 138.25 130.78 158.81 136.08 113.72 141.37 127.23 146.67 126.18 151.96 143.03 162.55 145.32 167.84 161.17 178.43 148.99 189.02 148.15 199.61 135.77 210.2 148.27 220.78 157.43 231.37 163.67 241.96 173.39 252.55 185.68 263.14 158 273.73 164.79 284.31 178.04 294.9 168.61 310.79 259.19 316.08 214.44"/><polyline class="j" points="51.37 135.16 56.67 141.34 61.96 104.12 67.25 83.36 72.55 90.63 77.84 64.91 83.14 117.13 93.72 74.12 104.31 72.79 109.61 91.57 114.9 53.59 120.2 117.3 125.49 92.28 130.78 114.12 136.08 97.51 141.37 109.74 146.67 65.59 151.96 83 162.55 107.09 167.84 105.02 178.43 86.61 189.02 82.64 199.61 70.1 210.2 105.88 220.78 103.85 231.37 76.02 241.96 105.62 252.55 121.52 263.14 115.8 273.73 89.1 284.31 115.5 294.9 99.51 310.79 203.89 316.08 187.7"/><text class="m" transform="translate(7.03 259.19)"><tspan class="e" x="0" y="0">1</tspan><tspan class="u" x="4.89" y="0">.</tspan><tspan x="8.67" y="0">9 (less hap</tspan><tspan class="t" x="76.58" y="0">p</tspan><tspan x="84.62" y="0">y)</tspan></text><text class="m" transform="translate(7.03 177.13)"><tspan class="h" x="0" y="0">2</tspan><tspan class="w" x="7.53" y="0">.</tspan><tspan x="10.47" y="0">1</tspan></text><text class="m" transform="translate(7.03 95.08)"><tspan class="h" x="0" y="0">2</tspan><tspan class="r" x="7.53" y="0">.3</tspan></text><text class="m" transform="translate(7.03 13.02)"><tspan class="h" x="0" y="0">2</tspan><tspan class="u" x="7.53" y="0">.</tspan><tspan x="11.31" y="0">5 (happier)</tspan></text><text class="m" transform="translate(81.85 282.71)"><tspan x="0" y="0">1980</tspan></text><text class="m" transform="translate(134.8 282.71)"><tspan x="0" y="0">1990</tspan></text><text class="m" transform="translate(187.74 282.71)"><tspan x="0" y="0">2000</tspan></text><text class="m" transform="translate(240.68 282.71)"><tspan x="0" y="0">2010</tspan></text><text class="m" transform="translate(293.62 282.71)"><tspan x="0" y="0">2020</tspan></text><text class="p" transform="translate(323.25 126.26)"><tspan class="g" x="0" y="0">B</tspan><tspan class="v" x="8.62" y="0">achelo</tspan><tspan class="c" x="49.91" y="0">r</tspan><tspan class="s" x="55.86" y="0">’</tspan><tspan x="59.43" y="0">s</tspan><tspan x="0" y="16.8">or higher</tspan></text><text class="o" transform="translate(328.7 227.86)"><tspan class="u" x="0" y="0">E</tspan><tspan class="d" x="7.94" y="0">v</tspan><tspan x="14.92" y="0">e</tspan><tspan class="q" x="22.2" y="0">r</tspan><tspan class="u" x="27.59" y="0">y</tspan><tspan x="34.51" y="0">one</tspan><tspan x="0" y="16.8">else</tspan></text><text class="n" transform="translate(231.61 241.12)"><tspan x="0" y="0">Pandemic</tspan></text><polyline class="l" points="267.6 246.19 267.6 259.19 306.57 259.19"/><text class="m" transform="translate(35.02 282.71)"><tspan x="0" y="0">1</tspan><tspan class="t" x="5.31" y="0">9</tspan><tspan x="13.24" y="0">72</tspan></text></g></svg>