<?xml version="1.0" encoding="UTF-8"?><svg id="uuid-a86a2fbb-7079-42f7-add1-0182020f0b9f" xmlns="http://www.w3.org/2000/svg" viewBox="0 0 400 270.6032"><defs><style>.uuid-5365c475-ed8e-4457-98e9-360371940b28{letter-spacing:.05001em;}.uuid-3e2f6fea-88b3-49e4-951f-f5ce74b0bf89{fill:#98509f;}.uuid-3e2f6fea-88b3-49e4-951f-f5ce74b0bf89,.uuid-3d1d9a7a-3f6d-4da9-9ad8-5cb90a5e2c95,.uuid-681617eb-da47-4dc9-a757-5bd988504ce2{stroke-width:0px;}.uuid-30500ee7-6032-448c-b4f0-b961375ed8a1{letter-spacing:-.03997em;}.uuid-23a34561-99f6-4726-b753-8d91ea2c7231{fill:#f171ab;}.uuid-23a34561-99f6-4726-b753-8d91ea2c7231,.uuid-8e035b0a-673c-4ee9-b12b-22bf9119ab75,.uuid-9c01e319-1896-461f-9324-afbd7c1eb459,.uuid-6025ce21-05aa-4060-9243-442b4dbd9b4b,.uuid-da959cf2-62b0-4b76-861a-2236ae2f9f66{font-family:TiemposText-Regular, 'Copyright Klim Type Foundry';}.uuid-23a34561-99f6-4726-b753-8d91ea2c7231,.uuid-8e035b0a-673c-4ee9-b12b-22bf9119ab75,.uuid-9c01e319-1896-461f-9324-afbd7c1eb459,.uuid-da959cf2-62b0-4b76-861a-2236ae2f9f66{font-size:14px;}.uuid-8e035b0a-673c-4ee9-b12b-22bf9119ab75{fill:#d385a3;}.uuid-9c01e319-1896-461f-9324-afbd7c1eb459{fill:#98819b;}.uuid-ee91c4c5-9e25-47dd-bc40-624dc4b7736d{letter-spacing:.02002em;}.uuid-a546354f-e256-448d-9273-b0423b302777{letter-spacing:.01995em;}.uuid-6025ce21-05aa-4060-9243-442b4dbd9b4b{fill:#fff;font-size:16px;}.uuid-3d1d9a7a-3f6d-4da9-9ad8-5cb90a5e2c95{fill:#ef548e;}.uuid-681617eb-da47-4dc9-a757-5bd988504ce2{fill:#94596b;}.uuid-b1a0fce0-7c06-44f9-86b4-348e14625375{letter-spacing:-.04999em;}.uuid-862dbba5-baa4-434c-bc17-9f16104b2d3d{letter-spacing:.00006em;}.uuid-674cd7ea-ac9e-4832-ac66-b5440530dd63{stroke:#ef548e;}.uuid-674cd7ea-ac9e-4832-ac66-b5440530dd63,.uuid-a3b69aea-3bc6-499f-ae75-3e7e8902d63c,.uuid-4ac40e21-4e18-487c-947c-e475a62fea14,.uuid-1cef3c68-3507-4e82-ac23-6dc4c09b3b4e,.uuid-b112b78e-9839-413c-a0f3-9f2e2c9d90b0{fill:none;stroke-miterlimit:10;}.uuid-674cd7ea-ac9e-4832-ac66-b5440530dd63,.uuid-1cef3c68-3507-4e82-ac23-6dc4c09b3b4e,.uuid-b112b78e-9839-413c-a0f3-9f2e2c9d90b0{stroke-width:2px;}.uuid-a3b69aea-3bc6-499f-ae75-3e7e8902d63c{opacity:.62;stroke:#9d8da0;}.uuid-a3b69aea-3bc6-499f-ae75-3e7e8902d63c,.uuid-4ac40e21-4e18-487c-947c-e475a62fea14{stroke-width:.5px;}.uuid-4ac40e21-4e18-487c-947c-e475a62fea14{stroke:#98819b;}.uuid-c3477030-6c75-471c-90c4-032b0fdc90fc{letter-spacing:-.00007em;}.uuid-da959cf2-62b0-4b76-861a-2236ae2f9f66{fill:#af6eae;}.uuid-1cef3c68-3507-4e82-ac23-6dc4c09b3b4e{stroke:#94596b;}.uuid-b112b78e-9839-413c-a0f3-9f2e2c9d90b0{stroke:#a0509f;}</style></defs><line class="uuid-4ac40e21-4e18-487c-947c-e475a62fea14" x1="3.27272" y1="242.04347" x2="395.84075" y2="242.04347"/><line class="uuid-a3b69aea-3bc6-499f-ae75-3e7e8902d63c" x1="3.27272" y1="195.68895" x2="395.84075" y2="195.68895"/><line class="uuid-a3b69aea-3bc6-499f-ae75-3e7e8902d63c" x1="3.27272" y1="149.33443" x2="395.84075" y2="149.33443"/><line class="uuid-a3b69aea-3bc6-499f-ae75-3e7e8902d63c" x1="3.27272" y1="102.97991" x2="395.84075" y2="102.97991"/><line class="uuid-a3b69aea-3bc6-499f-ae75-3e7e8902d63c" x1="3.27272" y1="56.62538" x2="395.84075" y2="56.62538"/><text class="uuid-9c01e319-1896-461f-9324-afbd7c1eb459" transform="translate(3.27271 52.63577)"><tspan x="0" y="0">$80k</tspan></text><text class="uuid-9c01e319-1896-461f-9324-afbd7c1eb459" transform="translate(3.27271 98.02152)"><tspan x="0" y="0">$60k</tspan></text><text class="uuid-9c01e319-1896-461f-9324-afbd7c1eb459" transform="translate(3.27271 144.41019)"><tspan x="0" y="0">$40k</tspan></text><text class="uuid-9c01e319-1896-461f-9324-afbd7c1eb459" transform="translate(3.27271 191.80179)"><tspan x="0" y="0">$20k</tspan></text><text class="uuid-9c01e319-1896-461f-9324-afbd7c1eb459" transform="translate(3.27271 237.37601)"><tspan x="0" y="0">$0k</tspan></text><text class="uuid-da959cf2-62b0-4b76-861a-2236ae2f9f66" transform="translate(17.32978 20.37567)"><tspan class="uuid-ee91c4c5-9e25-47dd-bc40-624dc4b7736d" x="0" y="0">B</tspan><tspan class="uuid-c3477030-6c75-471c-90c4-032b0fdc90fc" x="9.54785" y="0">achelo</tspan><tspan class="uuid-5365c475-ed8e-4457-98e9-360371940b28" x="52.72266" y="0">r</tspan><tspan class="uuid-30500ee7-6032-448c-b4f0-b961375ed8a1" x="59.19043" y="0">’</tspan><tspan x="62.38281" y="0">s or higher</tspan></text><rect class="uuid-3e2f6fea-88b3-49e4-951f-f5ce74b0bf89" y="9.41659" width="12.88587" height="12.88587"/><text class="uuid-8e035b0a-673c-4ee9-b12b-22bf9119ab75" transform="translate(174.70286 20.37531)"><tspan class="uuid-a546354f-e256-448d-9273-b0423b302777" x="0" y="0">S</tspan><tspan x="8.06348" y="0">ome college</tspan></text><rect class="uuid-681617eb-da47-4dc9-a757-5bd988504ce2" x="157.78474" y="9.41659" width="12.88587" height="12.88587"/><text class="uuid-23a34561-99f6-4726-b753-8d91ea2c7231" transform="translate(290.42747 20.37573)"><tspan x="0" y="0">HS diploma</tspan></text><rect class="uuid-3d1d9a7a-3f6d-4da9-9ad8-5cb90a5e2c95" x="273.30657" y="9.41659" width="12.88587" height="12.88587"/><polyline class="uuid-674cd7ea-ac9e-4832-ac66-b5440530dd63" points="58.3774 118.41426 61.55587 122.70786 64.73434 121.82399 67.91281 118.39679 71.09127 124.82496 74.26975 124.56993 77.44821 124.29394 80.62668 126.13155 83.80515 130.84089 86.98362 135.65503 90.16209 138.19835 93.34056 140.11283 96.51903 144.22475 99.6975 141.75769 102.87597 144.17395 106.05444 139.73345 109.2329 140.13598 112.41138 137.77317 115.58985 137.44506 118.76831 133.09316 121.94678 138.21091 125.12525 137.93982 128.30372 138.96748 131.48219 140.97142 134.66066 143.28141 137.83913 143.64484 141.0176 145.24717 144.19607 147.2222 147.37453 145.8233 150.55301 146.16201 153.73148 150.10334 156.90994 152.09253 160.08841 155.45553 163.26688 153.69261 166.44536 149.71638 169.62383 148.58785 172.80228 150.0031 175.98076 142.51291 179.15923 142.96834 182.3377 142.54093 185.51617 143.51177"/><polyline class="uuid-1cef3c68-3507-4e82-ac23-6dc4c09b3b4e" points="58.3774 108.1222 61.55587 109.52312 64.73434 109.80261 67.91281 108.20255 71.09127 109.44277 74.26975 107.74489 77.44821 112.85249 80.62668 109.13185 83.80515 112.80708 86.98362 116.84565 90.16209 119.79072 93.34056 123.13757 96.51903 128.61199 99.6975 129.12571 102.87597 132.01681 106.05444 127.7958 109.2329 123.67901 112.41138 120.70618 115.58985 119.8887 118.76831 116.44134 121.94678 117.65692 125.12525 117.45831 128.30372 122.02313 131.48219 120.50284 134.66066 123.7388 137.83913 127.92153 141.0176 125.65104 144.19607 125.99153 147.37453 123.12193 150.55301 127.31139 153.73148 129.27131 156.90994 131.13837 160.08841 131.65971 163.26688 139.16374 166.44536 133.39598 169.62383 135.00507 172.80228 135.01096 175.98076 133.70716 179.15923 131.59534 182.3377 126.85818 185.51617 128.52265"/><polyline class="uuid-b112b78e-9839-413c-a0f3-9f2e2c9d90b0" points="58.3774 87.22716 61.55587 93.20117 64.73434 86.46905 67.91281 84.77816 71.09127 81.51516 74.26975 74.60838 77.44821 73.52537 80.62668 77.17267 83.80515 79.95005 86.98362 88.98792 90.16209 79.70201 93.34056 82.151 96.51903 84.86201 99.6975 88.921 102.87597 87.4817 106.05444 87.52324 109.2329 82.89806 112.41138 79.9325 115.58985 77.54202 118.76831 71.80594 121.94678 71.97958 125.12525 69.45536 128.30372 73.58367 131.48219 74.6519 134.66066 80.64447 137.83913 82.89362 141.0176 82.01955 144.19607 77.14311 147.37453 79.44299 150.55301 87.53692 153.73148 86.67536 156.90994 89.34602 160.08841 87.84585 163.26688 83.50428 166.44536 80.31129 169.62383 80.5214 172.80228 84.2359 175.98076 83.55231 179.15923 73.39716 182.3377 71.80201 185.51617 67.04054"/><text class="uuid-9c01e319-1896-461f-9324-afbd7c1eb459" transform="translate(170.67096 257.46291)"><tspan x="0" y="0">2020</tspan></text><text class="uuid-9c01e319-1896-461f-9324-afbd7c1eb459" transform="translate(53.23453 257.46291)"><tspan x="0" y="0">1981</tspan></text><text class="uuid-6025ce21-05aa-4060-9243-442b4dbd9b4b" transform="translate(106.89971 52.19143)"><tspan x="0" y="0">Men</tspan></text><text class="uuid-9c01e319-1896-461f-9324-afbd7c1eb459" transform="translate(349.59567 257.62033)"><tspan x="0" y="0">2020</tspan></text><text class="uuid-9c01e319-1896-461f-9324-afbd7c1eb459" transform="translate(233.83927 257.62033)"><tspan x="0" y="0">1981</tspan></text><polyline class="uuid-674cd7ea-ac9e-4832-ac66-b5440530dd63" points="238.99442 161.03073 242.17227 162.56649 245.35013 161.76887 248.52798 160.12117 251.70584 159.0192 254.8837 159.23959 258.06155 158.22857 261.23941 160.20512 264.41726 160.72637 267.59512 163.53553 270.77297 161.76538 273.95083 162.93731 277.12869 164.29116 280.30654 166.71631 283.4844 170.34686 286.66226 165.09744 289.84011 164.722 293.01796 162.61625 296.19582 166.47109 299.37367 164.61715 302.55153 162.62606 305.72939 160.55496 308.90724 161.48966 312.0851 161.89961 315.26296 164.98916 318.44081 168.65109 321.61867 167.96806 324.79652 167.94961 327.97437 167.56054 331.15223 168.89549 334.33009 167.19448 337.50794 171.63674 340.6858 170.37468 343.86366 172.38093 347.04152 169.45818 350.21937 166.6671 353.39722 170.28312 356.57507 167.81233 359.75293 167.11649 362.93079 165.07229 366.10865 162.06787"/><polyline class="uuid-1cef3c68-3507-4e82-ac23-6dc4c09b3b4e" points="238.99442 149.59473 242.17227 148.04848 245.35013 144.78104 248.52798 147.28235 251.70584 146.09292 254.8837 146.37628 258.06155 144.10587 261.23941 143.28727 264.41726 144.84051 267.59512 145.78156 270.77297 146.5442 273.95083 147.48874 277.12869 149.79414 280.30654 152.50395 283.4844 153.1758 286.66226 151.68935 289.84011 154.02008 293.01796 150.49965 296.19582 149.22787 299.37367 150.25368 302.55153 149.0336 305.72939 149.17076 308.90724 149.90661 312.0851 146.59599 315.26296 148.90416 318.44081 151.67872 321.61867 149.63121 324.79652 153.12944 327.97437 152.84447 331.15223 151.89202 334.33009 156.44583 337.50794 158.71516 340.6858 157.51502 343.86366 162.18061 347.04152 158.36589 350.21937 160.11303 353.39722 160.20677 356.57507 161.08111 359.75293 154.06286 362.93079 152.09473 366.10865 155.20799"/><polyline class="uuid-b112b78e-9839-413c-a0f3-9f2e2c9d90b0" points="238.99442 128.61531 242.17227 129.93418 245.35013 129.96567 248.52798 124.5048 251.70584 119.45672 254.8837 116.36771 258.06155 118.83052 261.23941 114.63604 264.41726 111.34062 267.59512 113.28219 270.77297 116.84348 273.95083 115.85345 277.12869 111.72195 280.30654 116.5681 283.4844 118.77673 286.66226 120.36524 289.84011 116.54263 293.01796 114.2762 296.19582 108.2357 299.37367 109.66073 302.55153 108.6749 305.72939 102.23801 308.90724 104.87576 312.0851 108.35344 315.26296 110.97421 318.44081 112.04105 321.61867 111.96356 324.79652 109.24253 327.97437 108.04834 331.15223 113.12597 334.33009 114.42968 337.50794 113.60973 340.6858 115.56684 343.86366 109.59932 347.04152 107.8556 350.21937 109.66825 353.39722 109.54874 356.57507 110.9571 359.75293 105.45125 362.93079 98.32735 366.10865 101.81512"/><text class="uuid-6025ce21-05aa-4060-9243-442b4dbd9b4b" transform="translate(281.44892 52.19143)"><tspan class="uuid-b1a0fce0-7c06-44f9-86b4-348e14625375" x="0" y="0">W</tspan><tspan class="uuid-862dbba5-baa4-434c-bc17-9f16104b2d3d" x="14.57617" y="0">omen</tspan></text></svg>