<?xml version="1.0" encoding="UTF-8"?><svg id="a" xmlns="http://www.w3.org/2000/svg" viewBox="0 0 620 331.59"><defs><style>.b{letter-spacing:-.01em;}.c{letter-spacing:-.01em;}.d{letter-spacing:.05em;}.e{letter-spacing:0em;}.f{letter-spacing:-.03em;}.g{letter-spacing:.01em;}.h{letter-spacing:.02em;}.i{stroke:#974b9d;}.i,.j{stroke-width:2px;}.i,.j,.k,.l{fill:none;stroke-miterlimit:10;}.j{stroke:#ef548e;}.m{letter-spacing:0em;}.n{letter-spacing:0em;}.o{fill:#98819b;}.o,.p,.q,.r{font-family:"National 2 Web", -apple-system, BlinkMacSystemFont, Helvetica, Arial, sans-serif;;font-size:16px;}.p{fill:#f4f4f5;}.q{fill:#f171ab;}.r{fill:#af6eae;}.s{letter-spacing:0em;}.t{letter-spacing:0em;}.u{letter-spacing:-.02em;}.v{letter-spacing:0em;}.w{letter-spacing:-.07em;}.k{opacity:.62;stroke:#9d8da0;}.k,.l{stroke-width:.5px;}.l{stroke:#f4f4f5;}</style></defs><line class="k" x1="5.76" y1="303.7" x2="613.51" y2="303.7"/><line class="k" x1="5.76" y1="211.1" x2="613.51" y2="211.1"/><line class="k" x1="5.76" y1="118.5" x2="613.51" y2="118.5"/><line class="k" x1="5.76" y1="25.9" x2="613.51" y2="25.9"/><polyline class="j" points="75.14 203.9 83.42 140.77 91.71 140.76 99.99 171.62 108.27 159.49 116.56 152.95 124.84 131.53 141.41 160.54 157.97 184.69 166.26 178.5 174.54 158.44 182.82 174.89 191.1 159.71 199.39 182.93 207.67 132.01 215.95 147.27 224.24 146.09 232.52 165.11 249.09 167.7 257.37 185.6 273.94 171.84 290.5 170.89 307.07 156.92 323.64 171.02 340.2 181.38 356.77 188.42 373.34 199.4 389.9 213.28 406.47 182.02 423.04 189.68 439.6 204.64 456.17 193.99 481.02 296.28 489.3 245.75"/><polyline class="i" points="75.14 156.23 83.42 163.2 91.71 121.18 99.99 97.73 108.27 105.94 116.56 76.89 124.84 135.86 141.41 87.29 157.97 85.79 166.26 107 174.54 64.1 182.82 136.06 191.1 107.8 199.39 132.46 207.67 113.7 215.95 127.52 224.24 77.66 232.52 97.32 249.09 124.53 257.37 122.18 273.94 101.39 290.5 96.91 307.07 82.75 323.64 123.16 340.2 120.87 356.77 89.44 373.34 122.86 389.9 140.82 406.47 134.36 423.04 104.21 439.6 134.03 456.17 115.96 481.02 233.83 489.3 215.56"/><text class="o" transform="translate(5.76 296.28)"><tspan class="f" x="0" y="0">1</tspan><tspan class="c" x="5.58" y="0">.</tspan><tspan class="s" x="9.9" y="0">9 (less hap</tspan><tspan class="v" x="87.52" y="0">p</tspan><tspan class="s" x="96.7" y="0">y)</tspan></text><text class="o" transform="translate(5.76 203.62)"><tspan class="h" x="0" y="0">2</tspan><tspan class="w" x="8.61" y="0">.</tspan><tspan x="11.97" y="0">1</tspan></text><text class="o" transform="translate(5.76 110.96)"><tspan class="h" x="0" y="0">2</tspan><tspan class="n" x="8.61" y="0">.3</tspan></text><text class="o" transform="translate(5.76 18.3)"><tspan class="h" x="0" y="0">2</tspan><tspan class="c" x="8.61" y="0">.</tspan><tspan x="12.93" y="0">5 (happier)</tspan></text><text class="o" transform="translate(122.83 322.84)"><tspan x="0" y="0">1980</tspan></text><text class="o" transform="translate(205.67 322.84)"><tspan x="0" y="0">1990</tspan></text><text class="o" transform="translate(288.5 322.84)"><tspan x="0" y="0">2000</tspan></text><text class="o" transform="translate(371.33 322.84)"><tspan x="0" y="0">2010</tspan></text><text class="o" transform="translate(454.16 322.84)"><tspan x="0" y="0">2020</tspan></text><text class="r" transform="translate(500.52 146.18)"><tspan class="g" x="0" y="0">B</tspan><tspan x="9.86" y="0">achelo</tspan><tspan class="d" x="57.04" y="0">r</tspan><tspan class="u" x="63.84" y="0">’</tspan><tspan class="t" x="67.92" y="0">s</tspan><tspan x="0" y="19.2">or higher</tspan></text><text class="q" transform="translate(509.05 260.91)"><tspan class="c" x="0" y="0">E</tspan><tspan class="v" x="9.07" y="0">v</tspan><tspan class="m" x="17.06" y="0">e</tspan><tspan class="g" x="25.38" y="0">r</tspan><tspan class="b" x="31.54" y="0">y</tspan><tspan x="39.44" y="0">one</tspan><tspan x="0" y="19.2">else</tspan></text><text class="p" transform="translate(357.14 275.88)"><tspan x="0" y="0">Pandemic</tspan></text><polyline class="l" points="413.45 281.61 413.45 296.28 474.42 296.28"/><text class="o" transform="translate(59.84 322.84)"><tspan x="0" y="0">1</tspan><tspan class="e" x="6.06" y="0">9</tspan><tspan x="15.14" y="0">72</tspan></text></svg>