<?xml version="1.0" encoding="UTF-8"?><svg id="uuid-5fe1a2b1-a00e-4e38-b018-bb7f31d011ec" xmlns="http://www.w3.org/2000/svg" viewBox="0 0 620 331.59195"><defs><style>.uuid-6cc384dc-1a0a-4376-a9a1-be8dd0bdd2c3{fill:#f4f4f5;}.uuid-6cc384dc-1a0a-4376-a9a1-be8dd0bdd2c3,.uuid-21eca04f-1ef9-4de5-9436-3d5041419834,.uuid-94b3e8c2-93b4-4238-b269-3b35aa93486d,.uuid-7589089e-ade6-4438-b934-84dce8615dea{font-family:TiemposText-Regular, 'Copyright Klim Type Foundry';font-size:16px;}.uuid-2225539e-805c-4481-96e7-4827f548f519{letter-spacing:.04999em;}.uuid-d2b0331a-22aa-49af-bd0a-20717aa238a2{letter-spacing:-.04004em;}.uuid-21eca04f-1ef9-4de5-9436-3d5041419834{fill:#af6eae;}.uuid-04a688b3-3d9e-44cf-b5b5-d422cfb076f1{letter-spacing:-.01996em;}.uuid-cb6e78d2-2e52-4175-9a2e-ac8a642d5b3a{letter-spacing:.02002em;}.uuid-94b3e8c2-93b4-4238-b269-3b35aa93486d{fill:#f171ab;}.uuid-c8891a40-1842-4a72-80ac-87cc2b0e69da{stroke:#f4f4f5;}.uuid-c8891a40-1842-4a72-80ac-87cc2b0e69da,.uuid-882c7ee7-b12c-4963-af3e-665efeef081c,.uuid-cb9f6c5c-8e14-412f-adf3-5f06b66460d7,.uuid-b8b6567c-f0bf-4859-8a45-d974c176e524{fill:none;stroke-miterlimit:10;}.uuid-c8891a40-1842-4a72-80ac-87cc2b0e69da,.uuid-cb9f6c5c-8e14-412f-adf3-5f06b66460d7{stroke-width:.5px;}.uuid-7589089e-ade6-4438-b934-84dce8615dea{fill:#98819b;}.uuid-af5e2f3a-8dd3-4d93-bdf2-8a0c63380b54{letter-spacing:-.00006em;}.uuid-7b063d26-0980-46a5-b4a5-1798a51f0fb0{letter-spacing:.01996em;}.uuid-882c7ee7-b12c-4963-af3e-665efeef081c{stroke:#ef548e;}.uuid-882c7ee7-b12c-4963-af3e-665efeef081c,.uuid-b8b6567c-f0bf-4859-8a45-d974c176e524{stroke-width:2px;}.uuid-cb9f6c5c-8e14-412f-adf3-5f06b66460d7{opacity:.62;stroke:#9d8da0;}.uuid-b8b6567c-f0bf-4859-8a45-d974c176e524{stroke:#974b9d;}.uuid-b8ae225b-55c3-4942-901b-f8e274d6fff5{letter-spacing:-.06998em;}</style></defs><line class="uuid-cb9f6c5c-8e14-412f-adf3-5f06b66460d7" x1="5.76007" y1="303.69967" x2="613.51208" y2="303.69967"/><line class="uuid-cb9f6c5c-8e14-412f-adf3-5f06b66460d7" x1="5.76007" y1="211.10119" x2="613.51208" y2="211.10119"/><line class="uuid-cb9f6c5c-8e14-412f-adf3-5f06b66460d7" x1="5.76007" y1="118.5027" x2="613.51208" y2="118.5027"/><line class="uuid-cb9f6c5c-8e14-412f-adf3-5f06b66460d7" x1="5.76007" y1="25.90421" x2="613.51208" y2="25.90421"/><polyline class="uuid-882c7ee7-b12c-4963-af3e-665efeef081c" points="75.13975 203.90461 83.42297 140.77109 91.70619 140.75531 99.98942 171.62052 108.27264 159.49159 116.55586 152.94532 124.83909 131.53291 141.40554 160.54141 157.97198 184.68779 166.2552 178.4973 174.53843 158.4433 182.82165 174.89058 191.10488 159.71356 199.3881 182.93149 207.67132 132.01112 215.95454 147.26807 224.23777 146.08568 232.52099 165.10671 249.08743 167.69897 257.37067 185.59883 273.93712 171.84238 290.50355 170.89391 307.07 156.91511 323.63645 171.0235 340.2029 181.3756 356.76935 188.42026 373.3358 199.39933 389.90225 213.27558 406.46868 182.01735 423.03513 189.68404 439.6016 204.64344 456.16803 193.99316 481.01769 296.27918 489.30093 245.75325"/><polyline class="uuid-b8b6567c-f0bf-4859-8a45-d974c176e524" points="75.13975 156.22763 83.42297 163.20354 91.70619 121.17526 99.98942 97.72939 108.27264 105.93535 116.55586 76.89051 124.83909 135.86342 141.40554 87.29201 157.97198 85.79076 166.2552 107.00336 174.53843 64.1041 182.82165 136.0567 191.10488 107.79947 199.3881 132.46062 207.67132 113.7048 215.95454 127.52117 224.23777 77.66328 232.52099 97.32199 249.08743 124.52705 257.37067 122.18165 273.93712 101.39228 290.50355 96.90871 307.07 82.75456 323.63645 123.16127 340.2029 120.8697 356.76935 89.43935 373.3358 122.86298 389.90225 140.8242 406.46868 134.35829 423.03513 104.20856 439.6016 134.02701 456.16803 115.96497 481.01769 233.83423 489.30093 215.55731"/><text class="uuid-7589089e-ade6-4438-b934-84dce8615dea" transform="translate(5.76154 296.27958)"><tspan x="0" y="0">1</tspan><tspan class="uuid-b8ae225b-55c3-4942-901b-f8e274d6fff5" x="6.70361" y="0">.</tspan><tspan x="10.12793" y="0">9 (less happy)</tspan></text><text class="uuid-7589089e-ade6-4438-b934-84dce8615dea" transform="translate(5.76154 203.61845)"><tspan x="0" y="0">2.1</tspan></text><text class="uuid-7589089e-ade6-4438-b934-84dce8615dea" transform="translate(5.76154 110.95634)"><tspan x="0" y="0">2.3</tspan></text><text class="uuid-7589089e-ade6-4438-b934-84dce8615dea" transform="translate(5.76154 18.2952)"><tspan x="0" y="0">2.5 (happier)</tspan></text><text class="uuid-7589089e-ade6-4438-b934-84dce8615dea" transform="translate(122.83136 322.8411)"><tspan x="0" y="0">1980</tspan></text><text class="uuid-7589089e-ade6-4438-b934-84dce8615dea" transform="translate(205.66534 322.8411)"><tspan x="0" y="0">1990</tspan></text><text class="uuid-7589089e-ade6-4438-b934-84dce8615dea" transform="translate(288.49835 322.8411)"><tspan x="0" y="0">2000</tspan></text><text class="uuid-7589089e-ade6-4438-b934-84dce8615dea" transform="translate(371.32843 322.8411)"><tspan x="0" y="0">2010</tspan></text><text class="uuid-7589089e-ade6-4438-b934-84dce8615dea" transform="translate(454.15948 322.8411)"><tspan x="0" y="0">2020</tspan></text><text class="uuid-21eca04f-1ef9-4de5-9436-3d5041419834" transform="translate(500.51691 146.17606)"><tspan class="uuid-cb6e78d2-2e52-4175-9a2e-ac8a642d5b3a" x="0" y="0">B</tspan><tspan x="10.91211" y="0">achelo</tspan><tspan class="uuid-2225539e-805c-4481-96e7-4827f548f519" x="60.25488" y="0">r</tspan><tspan class="uuid-d2b0331a-22aa-49af-bd0a-20717aa238a2" x="67.64648" y="0">’</tspan><tspan x="71.29395" y="0">s</tspan><tspan x="0" y="19.2002">or higher</tspan></text><text class="uuid-94b3e8c2-93b4-4238-b269-3b35aa93486d" transform="translate(509.0462 260.90751)"><tspan x="0" y="0">Eve</tspan><tspan class="uuid-7b063d26-0980-46a5-b4a5-1798a51f0fb0" x="27.91992" y="0">r</tspan><tspan class="uuid-04a688b3-3d9e-44cf-b5b5-d422cfb076f1" x="34.83105" y="0">y</tspan><tspan class="uuid-af5e2f3a-8dd3-4d93-bdf2-8a0c63380b54" x="43.4873" y="0">one</tspan><tspan x="0" y="19.2002">else</tspan></text><text class="uuid-6cc384dc-1a0a-4376-a9a1-be8dd0bdd2c3" transform="translate(357.13702 275.87919)"><tspan x="0" y="0">Pandemic</tspan></text><polyline class="uuid-c8891a40-1842-4a72-80ac-87cc2b0e69da" points="413.45199 281.60807 413.45199 296.27918 474.4218 296.27918"/><text class="uuid-7589089e-ade6-4438-b934-84dce8615dea" transform="translate(59.83881 322.84141)"><tspan x="0" y="0">1972</tspan></text></svg>