<?xml version="1.0" encoding="UTF-8"?><svg id="a" xmlns="http://www.w3.org/2000/svg" viewBox="0 0 620 273.73"><defs><style>.b{letter-spacing:.05em;}.c{fill:#ef548e;}.d{fill:#98509f;}.e{fill:#94596b;}.f{letter-spacing:.01em;}.g{fill:#fff;font-family:"National 2 Web", -apple-system, BlinkMacSystemFont, Helvetica, Arial, sans-serif;}.g,.h,.i,.j,.k{font-size:16px;}.l{letter-spacing:-.04em;}.m{stroke:#94596b;}.m,.n,.o{stroke-width:2px;}.m,.n,.o,.p,.q{fill:none;stroke-miterlimit:10;}.n{stroke:#a0509f;}.o{stroke:#ef548e;}.h{fill:#98819b;}.h,.i,.j,.k{font-family:"National 2 Web", -apple-system, BlinkMacSystemFont, Helvetica, Arial, sans-serif;;}.i{fill:#f171ab;}.j{fill:#d385a3;}.k{fill:#af6eae;}.r{letter-spacing:0em;}.s{letter-spacing:-.02em;}.p{opacity:.62;stroke:#9d8da0;}.p,.q{stroke-width:.5px;}.q{stroke:#98819b;}</style></defs><line class="q" x1="13.57" y1="243.14" x2="612.4" y2="243.14"/><line class="p" x1="13.57" y1="196.79" x2="612.4" y2="196.79"/><line class="p" x1="13.57" y1="150.44" x2="612.4" y2="150.44"/><line class="p" x1="13.57" y1="104.08" x2="612.4" y2="104.08"/><line class="p" x1="13.57" y1="57.73" x2="612.4" y2="57.73"/><text class="h" transform="translate(13.57 53.74)"><tspan x="0" y="0">$80k</tspan></text><text class="h" transform="translate(13.57 99.12)"><tspan x="0" y="0">$60k</tspan></text><text class="h" transform="translate(13.57 145.51)"><tspan x="0" y="0">$40k</tspan></text><text class="h" transform="translate(13.57 192.9)"><tspan x="0" y="0">$20k</tspan></text><text class="h" transform="translate(13.57 238.48)"><tspan x="0" y="0">$0k</tspan></text><g><polyline class="o" points="97.62 119.52 102.47 123.81 107.32 122.92 112.17 119.5 117.02 125.93 121.87 125.67 126.71 125.39 131.56 127.23 136.41 131.94 141.26 136.76 146.11 139.3 150.96 141.21 155.81 145.33 160.65 142.86 165.5 145.27 170.35 140.83 175.2 141.24 180.05 138.87 184.9 138.55 189.75 134.19 194.59 139.31 199.44 139.04 204.29 140.07 209.14 142.07 213.99 144.38 218.84 144.75 223.68 146.35 228.53 148.32 233.38 146.92 238.23 147.26 243.08 151.2 247.93 153.19 252.78 156.56 257.62 154.79 262.47 150.82 267.32 149.69 272.17 151.1 277.02 143.61 281.87 144.07 286.72 143.64 291.56 144.61"/><polyline class="m" points="97.62 109.22 102.47 110.62 107.32 110.9 112.17 109.3 117.02 110.54 121.87 108.85 126.71 113.95 131.56 110.23 136.41 113.91 141.26 117.95 146.11 120.89 150.96 124.24 155.81 129.71 160.65 130.23 165.5 133.12 170.35 128.9 175.2 124.78 180.05 121.81 184.9 120.99 189.75 117.54 194.59 118.76 199.44 118.56 204.29 123.12 209.14 121.6 213.99 124.84 218.84 129.02 223.68 126.75 228.53 127.09 233.38 124.22 238.23 128.41 243.08 130.37 247.93 132.24 252.78 132.76 257.62 140.26 262.47 134.5 267.32 136.11 272.17 136.11 277.02 134.81 281.87 132.7 286.72 127.96 291.56 129.62"/><polyline class="n" points="97.62 88.33 102.47 94.3 107.32 87.57 112.17 85.88 117.02 82.62 121.87 75.71 126.71 74.63 131.56 78.27 136.41 81.05 141.26 90.09 146.11 80.8 150.96 83.25 155.81 85.96 160.65 90.02 165.5 88.58 170.35 88.62 175.2 84 180.05 81.03 184.9 78.64 189.75 72.91 194.59 73.08 199.44 70.56 204.29 74.68 209.14 75.75 213.99 81.75 218.84 83.99 223.68 83.12 228.53 78.24 233.38 80.54 238.23 88.64 243.08 87.78 247.93 90.45 252.78 88.95 257.62 84.61 262.47 81.41 267.32 81.62 272.17 85.34 277.02 84.65 281.87 74.5 286.72 72.9 291.56 68.14"/><text class="h" transform="translate(268.92 258.56)"><tspan x="0" y="0">2020</tspan></text><text class="h" transform="translate(89.78 258.56)"><tspan x="0" y="0">1981</tspan></text><text class="g" transform="translate(171.64 53.29)"><tspan x="0" y="0">Men</tspan></text></g><g><text class="h" transform="translate(541.85 258.72)"><tspan x="0" y="0">2020</tspan></text><text class="h" transform="translate(365.28 258.72)"><tspan x="0" y="0">1981</tspan></text><g><polyline class="o" points="373.14 162.13 377.99 163.67 382.84 162.87 387.68 161.22 392.53 160.12 397.38 160.34 402.23 159.33 407.07 161.31 411.92 161.83 416.77 164.64 421.62 162.87 426.46 164.04 431.31 165.39 436.16 167.82 441.01 171.45 445.85 166.2 450.7 165.82 455.55 163.72 460.4 167.57 465.24 165.72 470.09 163.73 474.94 161.66 479.79 162.59 484.63 163 489.48 166.09 494.33 169.75 499.18 169.07 504.02 169.05 508.87 168.66 513.72 170 518.57 168.3 523.41 172.74 528.26 171.48 533.11 173.48 537.96 170.56 542.81 167.77 547.65 171.38 552.5 168.91 557.35 168.22 562.2 166.17 567.04 163.17"/><polyline class="m" points="373.14 150.7 377.99 149.15 382.84 145.88 387.68 148.38 392.53 147.19 397.38 147.48 402.23 145.21 407.07 144.39 411.92 145.94 416.77 146.88 421.62 147.65 426.46 148.59 431.31 150.9 436.16 153.6 441.01 154.28 445.85 152.79 450.7 155.12 455.55 151.6 460.4 150.33 465.24 151.35 470.09 150.13 474.94 150.27 479.79 151.01 484.63 147.7 489.48 150.01 494.33 152.78 499.18 150.73 504.02 154.23 508.87 153.95 513.72 152.99 518.57 157.55 523.41 159.82 528.26 158.62 533.11 163.28 537.96 159.47 542.81 161.21 547.65 161.31 552.5 162.18 557.35 155.16 562.2 153.2 567.04 156.31"/><polyline class="n" points="373.14 129.72 377.99 131.04 382.84 131.07 387.68 125.61 392.53 120.56 397.38 117.47 402.23 119.93 407.07 115.74 411.92 112.44 416.77 114.38 421.62 117.94 426.46 116.95 431.31 112.82 436.16 117.67 441.01 119.88 445.85 121.47 450.7 117.64 455.55 115.38 460.4 109.34 465.24 110.76 470.09 109.78 474.94 103.34 479.79 105.98 484.63 109.45 489.48 112.08 494.33 113.14 499.18 113.06 504.02 110.34 508.87 109.15 513.72 114.23 518.57 115.53 523.41 114.71 528.26 116.67 533.11 110.7 537.96 108.96 542.81 110.77 547.65 110.65 552.5 112.06 557.35 106.55 562.2 99.43 567.04 102.92"/></g><text class="g" transform="translate(437.9 53.29)"><tspan class="l" x="0" y="0">W</tspan><tspan class="r" x="13.78" y="0">omen</tspan></text></g><g><text class="k" transform="translate(30.9 23.38)"><tspan class="f" x="0" y="0">B</tspan><tspan x="9.86" y="0">achelo</tspan><tspan class="b" x="57.04" y="0">r</tspan><tspan class="s" x="63.84" y="0">’</tspan><tspan class="r" x="67.92" y="0">s or higher</tspan></text><rect class="d" x="13.57" y="12.42" width="12.89" height="12.89"/></g><g><text class="j" transform="translate(211.51 23.38)"><tspan x="0" y="0">Some college</tspan></text><rect class="e" x="194.59" y="12.42" width="12.89" height="12.89"/></g><g><text class="i" transform="translate(344.36 23.38)"><tspan x="0" y="0">HS diploma</tspan></text><rect class="c" x="327.24" y="12.42" width="12.89" height="12.89"/></g></svg>