<?xml version="1.0" encoding="UTF-8"?><svg id="a" xmlns="http://www.w3.org/2000/svg" viewBox="0 0 400 270.6"><defs><style>.b{letter-spacing:.05em;}.c{fill:#ef548e;}.d{fill:#98509f;}.e{fill:#94596b;}.f{letter-spacing:.01em;}.g{fill:#fff;font-family:"National 2 Web", -apple-system, BlinkMacSystemFont, Helvetica, Arial, sans-serif;font-size:16px;}.h{letter-spacing:-.04em;}.i{fill:#98819b;}.i,.j,.k,.l{font-family:"National 2 Web", -apple-system, BlinkMacSystemFont, Helvetica, Arial, sans-serif;;font-size:14px;}.j{fill:#f171ab;}.k{fill:#d385a3;}.l{fill:#af6eae;}.m{stroke:#94596b;}.m,.n,.o{stroke-width:2px;}.m,.n,.o,.p,.q{fill:none;stroke-miterlimit:10;}.n{stroke:#a0509f;}.o{stroke:#ef548e;}.r{letter-spacing:0em;}.s{letter-spacing:-.01em;}.t{letter-spacing:0em;}.p{opacity:.62;stroke:#9d8da0;}.p,.q{stroke-width:.5px;}.q{stroke:#98819b;}</style></defs><line class="q" x1="3.27" y1="242.04" x2="395.84" y2="242.04"/><line class="p" x1="3.27" y1="195.69" x2="395.84" y2="195.69"/><line class="p" x1="3.27" y1="149.33" x2="395.84" y2="149.33"/><line class="p" x1="3.27" y1="102.98" x2="395.84" y2="102.98"/><line class="p" x1="3.27" y1="56.63" x2="395.84" y2="56.63"/><text class="i" transform="translate(3.27 52.64)"><tspan x="0" y="0">$80k</tspan></text><text class="i" transform="translate(3.27 98.02)"><tspan x="0" y="0">$60k</tspan></text><text class="i" transform="translate(3.27 144.41)"><tspan x="0" y="0">$40k</tspan></text><text class="i" transform="translate(3.27 191.8)"><tspan x="0" y="0">$20k</tspan></text><text class="i" transform="translate(3.27 237.38)"><tspan x="0" y="0">$0k</tspan></text><g><text class="l" transform="translate(17.33 20.38)"><tspan class="f" x="0" y="0">B</tspan><tspan class="t" x="8.62" y="0">achelo</tspan><tspan class="b" x="49.91" y="0">r</tspan><tspan class="s" x="55.86" y="0">’</tspan><tspan x="59.43" y="0">s or higher</tspan></text><rect class="d" y="9.42" width="12.89" height="12.89"/></g><g><text class="k" transform="translate(174.7 20.38)"><tspan x="0" y="0">Some college</tspan></text><rect class="e" x="157.78" y="9.42" width="12.89" height="12.89"/></g><g><text class="j" transform="translate(290.43 20.38)"><tspan x="0" y="0">HS diploma</tspan></text><rect class="c" x="273.31" y="9.42" width="12.89" height="12.89"/></g><g><polyline class="o" points="58.38 118.41 61.56 122.71 64.73 121.82 67.91 118.4 71.09 124.82 74.27 124.57 77.45 124.29 80.63 126.13 83.81 130.84 86.98 135.66 90.16 138.2 93.34 140.11 96.52 144.22 99.7 141.76 102.88 144.17 106.05 139.73 109.23 140.14 112.41 137.77 115.59 137.45 118.77 133.09 121.95 138.21 125.13 137.94 128.3 138.97 131.48 140.97 134.66 143.28 137.84 143.64 141.02 145.25 144.2 147.22 147.37 145.82 150.55 146.16 153.73 150.1 156.91 152.09 160.09 155.46 163.27 153.69 166.45 149.72 169.62 148.59 172.8 150 175.98 142.51 179.16 142.97 182.34 142.54 185.52 143.51"/><polyline class="m" points="58.38 108.12 61.56 109.52 64.73 109.8 67.91 108.2 71.09 109.44 74.27 107.74 77.45 112.85 80.63 109.13 83.81 112.81 86.98 116.85 90.16 119.79 93.34 123.14 96.52 128.61 99.7 129.13 102.88 132.02 106.05 127.8 109.23 123.68 112.41 120.71 115.59 119.89 118.77 116.44 121.95 117.66 125.13 117.46 128.3 122.02 131.48 120.5 134.66 123.74 137.84 127.92 141.02 125.65 144.2 125.99 147.37 123.12 150.55 127.31 153.73 129.27 156.91 131.14 160.09 131.66 163.27 139.16 166.45 133.4 169.62 135.01 172.8 135.01 175.98 133.71 179.16 131.6 182.34 126.86 185.52 128.52"/><polyline class="n" points="58.38 87.23 61.56 93.2 64.73 86.47 67.91 84.78 71.09 81.52 74.27 74.61 77.45 73.53 80.63 77.17 83.81 79.95 86.98 88.99 90.16 79.7 93.34 82.15 96.52 84.86 99.7 88.92 102.88 87.48 106.05 87.52 109.23 82.9 112.41 79.93 115.59 77.54 118.77 71.81 121.95 71.98 125.13 69.46 128.3 73.58 131.48 74.65 134.66 80.64 137.84 82.89 141.02 82.02 144.2 77.14 147.37 79.44 150.55 87.54 153.73 86.68 156.91 89.35 160.09 87.85 163.27 83.5 166.45 80.31 169.62 80.52 172.8 84.24 175.98 83.55 179.16 73.4 182.34 71.8 185.52 67.04"/><text class="i" transform="translate(170.67 257.46)"><tspan x="0" y="0">2020</tspan></text><text class="i" transform="translate(53.23 257.46)"><tspan x="0" y="0">1981</tspan></text><text class="g" transform="translate(106.9 52.19)"><tspan x="0" y="0">Men</tspan></text></g><g><text class="i" transform="translate(349.6 257.62)"><tspan x="0" y="0">2020</tspan></text><text class="i" transform="translate(233.84 257.62)"><tspan x="0" y="0">1981</tspan></text><g><polyline class="o" points="238.99 161.03 242.17 162.57 245.35 161.77 248.53 160.12 251.71 159.02 254.88 159.24 258.06 158.23 261.24 160.21 264.42 160.73 267.6 163.54 270.77 161.77 273.95 162.94 277.13 164.29 280.31 166.72 283.48 170.35 286.66 165.1 289.84 164.72 293.02 162.62 296.2 166.47 299.37 164.62 302.55 162.63 305.73 160.55 308.91 161.49 312.09 161.9 315.26 164.99 318.44 168.65 321.62 167.97 324.8 167.95 327.97 167.56 331.15 168.9 334.33 167.19 337.51 171.64 340.69 170.37 343.86 172.38 347.04 169.46 350.22 166.67 353.4 170.28 356.58 167.81 359.75 167.12 362.93 165.07 366.11 162.07"/><polyline class="m" points="238.99 149.59 242.17 148.05 245.35 144.78 248.53 147.28 251.71 146.09 254.88 146.38 258.06 144.11 261.24 143.29 264.42 144.84 267.6 145.78 270.77 146.54 273.95 147.49 277.13 149.79 280.31 152.5 283.48 153.18 286.66 151.69 289.84 154.02 293.02 150.5 296.2 149.23 299.37 150.25 302.55 149.03 305.73 149.17 308.91 149.91 312.09 146.6 315.26 148.9 318.44 151.68 321.62 149.63 324.8 153.13 327.97 152.84 331.15 151.89 334.33 156.45 337.51 158.72 340.69 157.52 343.86 162.18 347.04 158.37 350.22 160.11 353.4 160.21 356.58 161.08 359.75 154.06 362.93 152.09 366.11 155.21"/><polyline class="n" points="238.99 128.62 242.17 129.93 245.35 129.97 248.53 124.5 251.71 119.46 254.88 116.37 258.06 118.83 261.24 114.64 264.42 111.34 267.6 113.28 270.77 116.84 273.95 115.85 277.13 111.72 280.31 116.57 283.48 118.78 286.66 120.37 289.84 116.54 293.02 114.28 296.2 108.24 299.37 109.66 302.55 108.67 305.73 102.24 308.91 104.88 312.09 108.35 315.26 110.97 318.44 112.04 321.62 111.96 324.8 109.24 327.97 108.05 331.15 113.13 334.33 114.43 337.51 113.61 340.69 115.57 343.86 109.6 347.04 107.86 350.22 109.67 353.4 109.55 356.58 110.96 359.75 105.45 362.93 98.33 366.11 101.82"/></g><text class="g" transform="translate(281.45 52.19)"><tspan class="h" x="0" y="0">W</tspan><tspan class="r" x="13.78" y="0">omen</tspan></text></g></svg>