<?xml version="1.0" encoding="UTF-8"?><svg id="uuid-10ac576e-5ae9-41c7-9f92-034f5b173851" xmlns="http://www.w3.org/2000/svg" viewBox="0 0 620 273.72945"><defs><style>.uuid-20c13c81-9dd1-419c-88ee-500fe2a27a4f{letter-spacing:.04999em;}.uuid-b7d6f713-cfe8-43c3-996d-ff38a058b74a{fill:#98509f;}.uuid-b7d6f713-cfe8-43c3-996d-ff38a058b74a,.uuid-07d7951f-4da4-4dc7-91d1-68f22d541784,.uuid-02db7973-5f1b-4d03-8d4a-412c91ce3a53{stroke-width:0px;}.uuid-391f3633-02be-476e-a4e6-c91f68ae218f{letter-spacing:-.04004em;}.uuid-95e76cc6-2193-4ff6-8ae0-52e6ac207635{fill:#af6eae;}.uuid-95e76cc6-2193-4ff6-8ae0-52e6ac207635,.uuid-6d14f27f-6d4f-4f9a-bc00-63835d9311c6,.uuid-b2da6dfa-7459-4b39-9486-75a7bbf99729,.uuid-f32b160b-6bff-4abd-a43e-51a95883cda4,.uuid-06715593-5d89-48de-b4d5-8420d5fe551b{font-family:TiemposText-Regular, 'Copyright Klim Type Foundry';font-size:16px;}.uuid-db2104df-d155-46d7-ada0-249b57db4554{letter-spacing:.02002em;}.uuid-6d14f27f-6d4f-4f9a-bc00-63835d9311c6{fill:#fff;}.uuid-07d7951f-4da4-4dc7-91d1-68f22d541784{fill:#ef548e;}.uuid-b2da6dfa-7459-4b39-9486-75a7bbf99729{fill:#f171ab;}.uuid-f32b160b-6bff-4abd-a43e-51a95883cda4{fill:#d385a3;}.uuid-06715593-5d89-48de-b4d5-8420d5fe551b{fill:#98819b;}.uuid-02db7973-5f1b-4d03-8d4a-412c91ce3a53{fill:#94596b;}.uuid-ff41e414-a3f5-4697-80e5-65d6a03cc759{letter-spacing:-.04999em;}.uuid-c1ffbbe6-c393-49a4-ab34-65d04ea96762{letter-spacing:-.00006em;}.uuid-caf4c149-6ece-4b4d-8694-2fd69271d9e1{letter-spacing:.01996em;}.uuid-f647b45c-7904-470a-bce1-7323dbff213e{letter-spacing:.00006em;}.uuid-e930399f-c31f-4399-9848-e1d33ec428ed{stroke:#ef548e;}.uuid-e930399f-c31f-4399-9848-e1d33ec428ed,.uuid-28fa669e-a26f-49a9-bf99-d97c2667c966,.uuid-8a1d42a2-1c8f-4291-814a-dbdb352eb1bf,.uuid-f1bb666f-be18-42a6-9a95-d13a62d3c6da,.uuid-578f8635-5ee9-452f-b0ca-c7ea741d43c2{fill:none;stroke-miterlimit:10;}.uuid-e930399f-c31f-4399-9848-e1d33ec428ed,.uuid-f1bb666f-be18-42a6-9a95-d13a62d3c6da,.uuid-578f8635-5ee9-452f-b0ca-c7ea741d43c2{stroke-width:2px;}.uuid-28fa669e-a26f-49a9-bf99-d97c2667c966{opacity:.62;stroke:#9d8da0;}.uuid-28fa669e-a26f-49a9-bf99-d97c2667c966,.uuid-8a1d42a2-1c8f-4291-814a-dbdb352eb1bf{stroke-width:.5px;}.uuid-8a1d42a2-1c8f-4291-814a-dbdb352eb1bf{stroke:#98819b;}.uuid-f1bb666f-be18-42a6-9a95-d13a62d3c6da{stroke:#94596b;}.uuid-578f8635-5ee9-452f-b0ca-c7ea741d43c2{stroke:#a0509f;}</style></defs><line class="uuid-8a1d42a2-1c8f-4291-814a-dbdb352eb1bf" x1="13.56577" y1="243.14442" x2="612.39695" y2="243.14442"/><line class="uuid-28fa669e-a26f-49a9-bf99-d97c2667c966" x1="13.56577" y1="196.78989" x2="612.39695" y2="196.78989"/><line class="uuid-28fa669e-a26f-49a9-bf99-d97c2667c966" x1="13.56577" y1="150.43537" x2="612.39695" y2="150.43537"/><line class="uuid-28fa669e-a26f-49a9-bf99-d97c2667c966" x1="13.56577" y1="104.08085" x2="612.39695" y2="104.08085"/><line class="uuid-28fa669e-a26f-49a9-bf99-d97c2667c966" x1="13.56577" y1="57.72633" x2="612.39695" y2="57.72633"/><text class="uuid-06715593-5d89-48de-b4d5-8420d5fe551b" transform="translate(13.56593 53.73661)"><tspan x="0" y="0">$80k</tspan></text><text class="uuid-06715593-5d89-48de-b4d5-8420d5fe551b" transform="translate(13.56593 99.12236)"><tspan x="0" y="0">$60k</tspan></text><text class="uuid-06715593-5d89-48de-b4d5-8420d5fe551b" transform="translate(13.56593 145.51103)"><tspan x="0" y="0">$40k</tspan></text><text class="uuid-06715593-5d89-48de-b4d5-8420d5fe551b" transform="translate(13.56593 192.90263)"><tspan x="0" y="0">$20k</tspan></text><text class="uuid-06715593-5d89-48de-b4d5-8420d5fe551b" transform="translate(13.56593 238.47685)"><tspan x="0" y="0">$0k</tspan></text><polyline class="uuid-e930399f-c31f-4399-9848-e1d33ec428ed" points="97.62355 119.51521 102.47205 123.8088 107.32055 122.92493 112.16905 119.49774 117.01755 125.9259 121.86606 125.67087 126.71456 125.39489 131.56306 127.2325 136.41156 131.94183 141.26006 136.75597 146.10856 139.2993 150.95706 141.21377 155.80556 145.3257 160.65406 142.85864 165.50257 145.2749 170.35107 140.83439 175.19957 141.23693 180.04807 138.87412 184.89658 138.54601 189.74507 134.19411 194.59357 139.31186 199.44208 139.04077 204.29057 140.06842 209.13908 142.07237 213.98758 144.38235 218.83607 144.74579 223.68458 146.34812 228.53308 148.32315 233.38158 146.92424 238.23008 147.26296 243.07859 151.20428 247.92708 153.19347 252.77559 156.55648 257.62409 154.79355 262.4726 150.81732 267.3211 149.6888 272.16958 151.10404 277.01809 143.61385 281.86659 144.06929 286.7151 143.64187 291.5636 144.61271"/><polyline class="uuid-f1bb666f-be18-42a6-9a95-d13a62d3c6da" points="97.62355 109.22315 102.47205 110.62406 107.32055 110.90355 112.16905 109.30349 117.01755 110.54371 121.86606 108.84584 126.71456 113.95344 131.56306 110.23279 136.41156 113.90802 141.26006 117.9466 146.10856 120.89167 150.95706 124.23851 155.80556 129.71294 160.65406 130.22666 165.50257 133.11776 170.35107 128.89675 175.19957 124.77996 180.04807 121.80713 184.89658 120.98965 189.74507 117.54229 194.59357 118.75786 199.44208 118.55926 204.29057 123.12407 209.13908 121.60378 213.98758 124.83974 218.83607 129.02247 223.68458 126.75198 228.53308 127.09248 233.38158 124.22288 238.23008 128.41234 243.07859 130.37225 247.92708 132.23931 252.77559 132.76065 257.62409 140.26468 262.4726 134.49692 267.3211 136.10601 272.16958 136.11191 277.01809 134.8081 281.86659 132.69629 286.7151 127.95912 291.5636 129.62359"/><polyline class="uuid-578f8635-5ee9-452f-b0ca-c7ea741d43c2" points="97.62355 88.3281 102.47205 94.30211 107.32055 87.57 112.16905 85.87911 117.01755 82.61611 121.86606 75.70933 126.71456 74.62632 131.56306 78.27361 136.41156 81.051 141.26006 90.08887 146.10856 80.80295 150.95706 83.25195 155.80556 85.96296 160.65406 90.02195 165.50257 88.58265 170.35107 88.62418 175.19957 83.99901 180.04807 81.03345 184.89658 78.64297 189.74507 72.90689 194.59357 73.08052 199.44208 70.55631 204.29057 74.68461 209.13908 75.75284 213.98758 81.74542 218.83607 83.99456 223.68458 83.1205 228.53308 78.24405 233.38158 80.54394 238.23008 88.63787 243.07859 87.77631 247.92708 90.44697 252.77559 88.94679 257.62409 84.60522 262.4726 81.41224 267.3211 81.62234 272.16958 85.33685 277.01809 84.65326 281.86659 74.49811 286.7151 72.90295 291.5636 68.14149"/><text class="uuid-06715593-5d89-48de-b4d5-8420d5fe551b" transform="translate(268.91847 258.56376)"><tspan x="0" y="0">2020</tspan></text><text class="uuid-06715593-5d89-48de-b4d5-8420d5fe551b" transform="translate(89.77833 258.56376)"><tspan x="0" y="0">1981</tspan></text><text class="uuid-6d14f27f-6d4f-4f9a-bc00-63835d9311c6" transform="translate(171.64064 53.29228)"><tspan x="0" y="0">Men</tspan></text><text class="uuid-06715593-5d89-48de-b4d5-8420d5fe551b" transform="translate(541.85402 258.72099)"><tspan x="0" y="0">2020</tspan></text><text class="uuid-06715593-5d89-48de-b4d5-8420d5fe551b" transform="translate(365.27638 258.72099)"><tspan x="0" y="0">1981</tspan></text><polyline class="uuid-e930399f-c31f-4399-9848-e1d33ec428ed" points="373.1404 162.13168 377.98796 163.66743 382.83553 162.86981 387.68309 161.22212 392.53066 160.12014 397.37822 160.34054 402.22579 159.32952 407.07335 161.30607 411.92092 161.82732 416.76848 164.63648 421.61605 162.86632 426.46362 164.03826 431.31118 165.39211 436.15874 167.81725 441.00631 171.44781 445.85388 166.19838 450.70144 165.82295 455.54901 163.7172 460.39657 167.57204 465.24413 165.7181 470.0917 163.727 474.93927 161.65591 479.78683 162.5906 484.6344 163.00056 489.48197 166.0901 494.32952 169.75204 499.17709 169.06901 504.02466 169.05056 508.87222 168.66149 513.71979 169.99644 518.56736 168.29542 523.41491 172.73769 528.26248 171.47563 533.11005 173.48187 537.95762 170.55912 542.80519 167.76805 547.65274 171.38406 552.5003 168.91328 557.34787 168.21744 562.19544 166.17323 567.04301 163.16882"/><polyline class="uuid-f1bb666f-be18-42a6-9a95-d13a62d3c6da" points="373.1404 150.69567 377.98796 149.14942 382.83553 145.88199 387.68309 148.38329 392.53066 147.19386 397.37822 147.47722 402.22579 145.20682 407.07335 144.38821 411.92092 145.94146 416.76848 146.88251 421.61605 147.64515 426.46362 148.58969 431.31118 150.89508 436.15874 153.60489 441.00631 154.27675 445.85388 152.79029 450.70144 155.12103 455.54901 151.6006 460.39657 150.32881 465.24413 151.35463 470.0917 150.13455 474.93927 150.2717 479.78683 151.00755 484.6344 147.69694 489.48197 150.00511 494.32952 152.77967 499.17709 150.73216 504.02466 154.23039 508.87222 153.94541 513.71979 152.99297 518.56736 157.54678 523.41491 159.81611 528.26248 158.61596 533.11005 163.28156 537.95762 159.46684 542.80519 161.21398 547.65274 161.30772 552.5003 162.18205 557.34787 155.16381 562.19544 153.19567 567.04301 156.30894"/><polyline class="uuid-578f8635-5ee9-452f-b0ca-c7ea741d43c2" points="373.1404 129.71626 377.98796 131.03513 382.83553 131.06662 387.68309 125.60574 392.53066 120.55767 397.37822 117.46866 402.22579 119.93146 407.07335 115.73699 411.92092 112.44157 416.76848 114.38314 421.61605 117.94443 426.46362 116.9544 431.31118 112.82289 436.15874 117.66905 441.00631 119.87767 445.85388 121.46618 450.70144 117.64358 455.54901 115.37715 460.39657 109.33664 465.24413 110.76168 470.0917 109.77585 474.93927 103.33896 479.78683 105.97671 484.6344 109.45439 489.48197 112.07515 494.32952 113.14199 499.17709 113.0645 504.02466 110.34347 508.87222 109.14928 513.71979 114.22692 518.56736 115.53063 523.41491 114.71067 528.26248 116.66778 533.11005 110.70027 537.95762 108.95655 542.80519 110.7692 547.65274 110.64968 552.5003 112.05804 557.34787 106.5522 562.19544 99.4283 567.04301 102.91607"/><text class="uuid-6d14f27f-6d4f-4f9a-bc00-63835d9311c6" transform="translate(437.90089 53.29228)"><tspan class="uuid-ff41e414-a3f5-4697-80e5-65d6a03cc759" x="0" y="0">W</tspan><tspan class="uuid-f647b45c-7904-470a-bce1-7323dbff213e" x="14.57617" y="0">omen</tspan></text><text class="uuid-95e76cc6-2193-4ff6-8ae0-52e6ac207635" transform="translate(30.89564 23.37995)"><tspan class="uuid-db2104df-d155-46d7-ada0-249b57db4554" x="0" y="0">B</tspan><tspan x="10.91211" y="0">achelo</tspan><tspan class="uuid-20c13c81-9dd1-419c-88ee-500fe2a27a4f" x="60.25488" y="0">r</tspan><tspan class="uuid-391f3633-02be-476e-a4e6-c91f68ae218f" x="67.64648" y="0">’</tspan><tspan x="71.29395" y="0">s or higher</tspan></text><rect class="uuid-b7d6f713-cfe8-43c3-996d-ff38a058b74a" x="13.56577" y="12.42086" width="12.88587" height="12.88587"/><text class="uuid-f32b160b-6bff-4abd-a43e-51a95883cda4" transform="translate(211.51167 23.37949)"><tspan class="uuid-caf4c149-6ece-4b4d-8694-2fd69271d9e1" x="0" y="0">S</tspan><tspan class="uuid-c1ffbbe6-c393-49a4-ab34-65d04ea96762" x="9.21582" y="0">ome college</tspan></text><rect class="uuid-02db7973-5f1b-4d03-8d4a-412c91ce3a53" x="194.59358" y="12.42086" width="12.88587" height="12.88587"/><text class="uuid-b2da6dfa-7459-4b39-9486-75a7bbf99729" transform="translate(344.35713 23.37992)"><tspan x="0" y="0">HS diploma</tspan></text><rect class="uuid-07d7951f-4da4-4dc7-91d1-68f22d541784" x="327.23628" y="12.42086" width="12.88587" height="12.88587"/></svg>